<svg xmlns="http://www.w3.org/2000/svg" xmlns:xlink="http://www.w3.org/1999/xlink" width="500" zoomAndPan="magnify" viewBox="0 0 375 374.999991" height="500" preserveAspectRatio="xMidYMid meet" version="1.0"><defs><clipPath id="d2177f94d7"><path d="M 81 341 L 294 341 L 294 373.5 L 81 373.5 Z M 81 341 " clip-rule="nonzero"/></clipPath></defs><path fill="#ac2037" d="M 4.746094 145.320312 L 370.285156 145.320312 C 367.902344 134.753906 364.632812 124.527344 360.554688 114.722656 L 14.472656 114.722656 C 10.394531 124.527344 7.125 134.753906 4.746094 145.320312 " fill-opacity="1" fill-rule="nonzero"/><path fill="#ac2037" d="M 0.152344 186.742188 C 0.152344 191.890625 0.367188 196.992188 0.773438 202.039062 L 374.253906 202.039062 C 374.660156 196.992188 374.875 191.890625 374.875 186.742188 C 374.875 181.589844 374.660156 176.488281 374.253906 171.441406 L 0.773438 171.441406 C 0.367188 176.488281 0.152344 181.589844 0.152344 186.742188 " fill-opacity="1" fill-rule="nonzero"/><path fill="#ac2037" d="M 14.472656 258.757812 L 360.554688 258.757812 C 364.632812 248.953125 367.902344 238.726562 370.285156 228.160156 L 4.746094 228.160156 C 7.125 238.726562 10.394531 248.953125 14.472656 258.757812 " fill-opacity="1" fill-rule="nonzero"/><path fill="#ac2037" d="M 51.273438 315.480469 L 323.753906 315.480469 C 332.570312 306.132812 340.433594 295.882812 347.199219 284.878906 L 27.828125 284.878906 C 34.59375 295.882812 42.457031 306.132812 51.273438 315.480469 " fill-opacity="1" fill-rule="nonzero"/><path fill="#ac2037" d="M 27.828125 88.605469 L 347.199219 88.605469 C 340.433594 77.601562 332.570312 67.351562 323.753906 58.003906 L 51.269531 58.003906 C 42.457031 67.351562 34.589844 77.601562 27.828125 88.605469 " fill-opacity="1" fill-rule="nonzero"/><g clip-path="url(#d2177f94d7)"><path fill="#ac2037" d="M 81.796875 341.597656 C 107.414062 359.152344 137.605469 370.5 170.214844 373.488281 L 204.808594 373.488281 C 237.417969 370.5 267.609375 359.152344 293.226562 341.597656 L 81.796875 341.597656 " fill-opacity="1" fill-rule="nonzero"/></g><path fill="#ac2037" d="M 293.230469 31.886719 C 267.609375 14.328125 237.414062 2.980469 204.800781 -0.0078125 L 170.222656 -0.0078125 C 137.609375 2.980469 107.417969 14.328125 81.800781 31.886719 L 293.230469 31.886719 " fill-opacity="1" fill-rule="nonzero"/><path fill="#ffffff" d="M 51.273438 58.003906 L 323.753906 58.003906 C 314.554688 48.25 304.320312 39.488281 293.230469 31.882812 L 81.800781 31.882812 C 70.707031 39.488281 60.472656 48.25 51.273438 58.003906 " fill-opacity="1" fill-rule="nonzero"/><path fill="#ffffff" d="M 14.472656 114.722656 L 360.550781 114.722656 C 356.769531 105.632812 352.300781 96.90625 347.199219 88.605469 L 27.828125 88.605469 C 22.726562 96.90625 18.253906 105.632812 14.472656 114.722656 " fill-opacity="1" fill-rule="nonzero"/><path fill="#ffffff" d="M 0.773438 171.441406 L 374.253906 171.441406 C 373.535156 162.542969 372.199219 153.824219 370.285156 145.320312 L 4.746094 145.320312 C 2.828125 153.824219 1.492188 162.542969 0.773438 171.441406 " fill-opacity="1" fill-rule="nonzero"/><path fill="#ffffff" d="M 4.746094 228.160156 L 370.285156 228.160156 C 372.199219 219.65625 373.535156 210.9375 374.253906 202.039062 L 0.773438 202.039062 C 1.492188 210.9375 2.832031 219.65625 4.746094 228.160156 " fill-opacity="1" fill-rule="nonzero"/><path fill="#ffffff" d="M 27.828125 284.878906 L 347.199219 284.878906 C 352.300781 276.578125 356.769531 267.851562 360.550781 258.761719 L 14.472656 258.761719 C 18.253906 267.851562 22.726562 276.578125 27.828125 284.878906 " fill-opacity="1" fill-rule="nonzero"/><path fill="#ffffff" d="M 81.800781 341.597656 L 293.226562 341.597656 C 304.320312 333.996094 314.550781 325.230469 323.753906 315.480469 L 51.273438 315.480469 C 60.472656 325.230469 70.707031 333.996094 81.800781 341.597656 " fill-opacity="1" fill-rule="nonzero"/><path fill="#22325e" d="M 204.207031 -0.0078125 L 170.222656 -0.0078125 C 74.855469 8.730469 0.152344 88.996094 0.152344 186.742188 C 0.152344 191.894531 0.367188 196.992188 0.773438 202.039062 L 204.207031 202.039062 L 204.207031 -0.0078125 " fill-opacity="1" fill-rule="nonzero"/><path fill="#ffffff" d="M 28.835938 172.132812 L 31.972656 178.492188 L 38.984375 179.511719 L 33.910156 184.464844 L 35.109375 191.457031 L 28.835938 188.15625 L 22.566406 191.457031 L 23.761719 184.464844 L 18.6875 179.511719 L 25.699219 178.492188 L 28.835938 172.132812 " fill-opacity="1" fill-rule="nonzero"/><path fill="#ffffff" d="M 28.835938 131.742188 L 31.972656 138.101562 L 38.984375 139.125 L 33.910156 144.074219 L 35.109375 151.066406 L 28.835938 147.765625 L 22.566406 151.066406 L 23.761719 144.074219 L 18.6875 139.125 L 25.699219 138.101562 L 28.835938 131.742188 " fill-opacity="1" fill-rule="nonzero"/><path fill="#ffffff" d="M 35.109375 91.355469 L 38.246094 97.714844 L 45.257812 98.738281 L 40.183594 103.6875 L 41.382812 110.675781 L 35.109375 107.378906 L 28.839844 110.675781 L 30.035156 103.6875 L 24.960938 98.738281 L 31.972656 97.714844 L 35.109375 91.355469 " fill-opacity="1" fill-rule="nonzero"/><path fill="#ffffff" d="M 54.75 152.808594 L 57.886719 159.171875 L 64.898438 160.191406 L 59.824219 165.140625 L 61.023438 172.132812 L 54.75 168.832031 L 48.480469 172.132812 L 49.675781 165.140625 L 44.601562 160.191406 L 51.613281 159.171875 L 54.75 152.808594 " fill-opacity="1" fill-rule="nonzero"/><path fill="#ffffff" d="M 54.75 112.421875 L 57.886719 118.78125 L 64.898438 119.800781 L 59.824219 124.753906 L 61.023438 131.742188 L 54.75 128.445312 L 48.480469 131.742188 L 49.675781 124.753906 L 44.601562 119.800781 L 51.613281 118.78125 L 54.75 112.421875 " fill-opacity="1" fill-rule="nonzero"/><path fill="#ffffff" d="M 54.75 72.03125 L 57.886719 78.390625 L 64.898438 79.410156 L 59.824219 84.363281 L 61.023438 91.355469 L 54.75 88.054688 L 48.480469 91.355469 L 49.675781 84.363281 L 44.601562 79.410156 L 51.613281 78.390625 L 54.75 72.03125 " fill-opacity="1" fill-rule="nonzero"/><path fill="#ffffff" d="M 79.882812 172.132812 L 83.019531 178.492188 L 90.035156 179.511719 L 84.960938 184.464844 L 86.15625 191.457031 L 79.882812 188.15625 L 73.613281 191.457031 L 74.808594 184.464844 L 69.734375 179.511719 L 76.746094 178.492188 L 79.882812 172.132812 " fill-opacity="1" fill-rule="nonzero"/><path fill="#ffffff" d="M 79.882812 131.742188 L 83.019531 138.101562 L 90.035156 139.125 L 84.960938 144.074219 L 86.15625 151.066406 L 79.882812 147.765625 L 73.613281 151.066406 L 74.808594 144.074219 L 69.734375 139.125 L 76.746094 138.101562 L 79.882812 131.742188 " fill-opacity="1" fill-rule="nonzero"/><path fill="#ffffff" d="M 79.882812 91.355469 L 83.019531 97.714844 L 90.035156 98.738281 L 84.960938 103.6875 L 86.15625 110.675781 L 79.882812 107.378906 L 73.613281 110.675781 L 74.808594 103.6875 L 69.734375 98.738281 L 76.746094 97.714844 L 79.882812 91.355469 " fill-opacity="1" fill-rule="nonzero"/><path fill="#ffffff" d="M 79.882812 50.964844 L 83.019531 57.324219 L 90.035156 58.347656 L 84.960938 63.296875 L 86.15625 70.289062 L 79.882812 66.988281 L 73.613281 70.289062 L 74.808594 63.296875 L 69.734375 58.347656 L 76.75 57.324219 L 79.882812 50.964844 " fill-opacity="1" fill-rule="nonzero"/><path fill="#ffffff" d="M 105.796875 152.808594 L 108.933594 159.171875 L 115.949219 160.191406 L 110.875 165.140625 L 112.070312 172.132812 L 105.796875 168.832031 L 99.527344 172.132812 L 100.722656 165.140625 L 95.648438 160.191406 L 102.664062 159.171875 L 105.796875 152.808594 " fill-opacity="1" fill-rule="nonzero"/><path fill="#ffffff" d="M 105.796875 112.421875 L 108.933594 118.78125 L 115.949219 119.800781 L 110.875 124.753906 L 112.070312 131.742188 L 105.796875 128.445312 L 99.527344 131.742188 L 100.722656 124.753906 L 95.648438 119.800781 L 102.664062 118.78125 L 105.796875 112.421875 " fill-opacity="1" fill-rule="nonzero"/><path fill="#ffffff" d="M 105.796875 72.03125 L 108.933594 78.390625 L 115.949219 79.410156 L 110.875 84.363281 L 112.070312 91.355469 L 105.796875 88.054688 L 99.527344 91.355469 L 100.722656 84.363281 L 95.648438 79.410156 L 102.664062 78.390625 L 105.796875 72.03125 " fill-opacity="1" fill-rule="nonzero"/><path fill="#ffffff" d="M 105.796875 31.644531 L 108.933594 38.003906 L 115.945312 39.023438 L 110.875 43.976562 L 112.070312 50.96875 L 105.796875 47.664062 L 99.527344 50.96875 L 100.722656 43.976562 L 95.648438 39.023438 L 102.660156 38.003906 L 105.796875 31.644531 " fill-opacity="1" fill-rule="nonzero"/><path fill="#ffffff" d="M 130.929688 172.132812 L 134.066406 178.492188 L 141.082031 179.511719 L 136.003906 184.464844 L 137.203125 191.457031 L 130.929688 188.15625 L 124.660156 191.457031 L 125.855469 184.464844 L 120.78125 179.511719 L 127.796875 178.492188 L 130.929688 172.132812 " fill-opacity="1" fill-rule="nonzero"/><path fill="#ffffff" d="M 130.929688 131.742188 L 134.066406 138.101562 L 141.082031 139.125 L 136.003906 144.074219 L 137.203125 151.066406 L 130.929688 147.765625 L 124.660156 151.066406 L 125.855469 144.074219 L 120.78125 139.125 L 127.796875 138.101562 L 130.929688 131.742188 " fill-opacity="1" fill-rule="nonzero"/><path fill="#ffffff" d="M 130.929688 91.355469 L 134.066406 97.714844 L 141.082031 98.738281 L 136.003906 103.6875 L 137.203125 110.675781 L 130.929688 107.378906 L 124.660156 110.675781 L 125.855469 103.6875 L 120.78125 98.738281 L 127.796875 97.714844 L 130.929688 91.355469 " fill-opacity="1" fill-rule="nonzero"/><path fill="#ffffff" d="M 130.933594 50.964844 L 134.070312 57.324219 L 141.082031 58.347656 L 136.007812 63.296875 L 137.203125 70.289062 L 130.933594 66.988281 L 124.660156 70.289062 L 125.859375 63.296875 L 120.785156 58.347656 L 127.796875 57.324219 L 130.933594 50.964844 " fill-opacity="1" fill-rule="nonzero"/><path fill="#ffffff" d="M 130.929688 10.578125 L 134.066406 16.9375 L 141.082031 17.957031 L 136.003906 22.910156 L 137.203125 29.898438 L 130.929688 26.597656 L 124.660156 29.898438 L 125.855469 22.910156 L 120.78125 17.957031 L 127.796875 16.9375 L 130.929688 10.578125 " fill-opacity="1" fill-rule="nonzero"/><path fill="#ffffff" d="M 156.84375 152.808594 L 159.984375 159.171875 L 166.996094 160.191406 L 161.921875 165.140625 L 163.117188 172.132812 L 156.84375 168.832031 L 150.574219 172.132812 L 151.769531 165.140625 L 146.695312 160.191406 L 153.710938 159.171875 L 156.84375 152.808594 " fill-opacity="1" fill-rule="nonzero"/><path fill="#ffffff" d="M 156.84375 112.421875 L 159.984375 118.78125 L 166.996094 119.800781 L 161.921875 124.753906 L 163.117188 131.742188 L 156.84375 128.445312 L 150.574219 131.742188 L 151.769531 124.753906 L 146.695312 119.800781 L 153.710938 118.78125 L 156.84375 112.421875 " fill-opacity="1" fill-rule="nonzero"/><path fill="#ffffff" d="M 156.84375 72.03125 L 159.984375 78.390625 L 166.996094 79.410156 L 161.921875 84.363281 L 163.117188 91.355469 L 156.84375 88.054688 L 150.574219 91.355469 L 151.769531 84.363281 L 146.695312 79.410156 L 153.710938 78.390625 L 156.84375 72.03125 " fill-opacity="1" fill-rule="nonzero"/><path fill="#ffffff" d="M 156.84375 31.644531 L 159.984375 38.003906 L 166.996094 39.023438 L 161.921875 43.976562 L 163.117188 50.96875 L 156.84375 47.664062 L 150.574219 50.96875 L 151.769531 43.976562 L 146.695312 39.023438 L 153.710938 38.003906 L 156.84375 31.644531 " fill-opacity="1" fill-rule="nonzero"/><path fill="#ffffff" d="M 181.980469 172.132812 L 185.117188 178.492188 L 192.128906 179.511719 L 187.054688 184.464844 L 188.25 191.457031 L 181.980469 188.15625 L 175.707031 191.457031 L 176.90625 184.464844 L 171.828125 179.511719 L 178.84375 178.492188 L 181.980469 172.132812 " fill-opacity="1" fill-rule="nonzero"/><path fill="#ffffff" d="M 181.980469 131.742188 L 185.117188 138.101562 L 192.128906 139.125 L 187.054688 144.074219 L 188.25 151.066406 L 181.980469 147.765625 L 175.707031 151.066406 L 176.90625 144.074219 L 171.828125 139.125 L 178.84375 138.101562 L 181.980469 131.742188 " fill-opacity="1" fill-rule="nonzero"/><path fill="#ffffff" d="M 181.980469 91.355469 L 185.117188 97.714844 L 192.128906 98.738281 L 187.054688 103.6875 L 188.25 110.675781 L 181.980469 107.378906 L 175.707031 110.675781 L 176.90625 103.6875 L 171.828125 98.738281 L 178.84375 97.714844 L 181.980469 91.355469 " fill-opacity="1" fill-rule="nonzero"/><path fill="#ffffff" d="M 181.980469 50.964844 L 185.117188 57.324219 L 192.128906 58.347656 L 187.054688 63.296875 L 188.25 70.289062 L 181.980469 66.988281 L 175.707031 70.289062 L 176.90625 63.296875 L 171.832031 58.347656 L 178.84375 57.324219 L 181.980469 50.964844 " fill-opacity="1" fill-rule="nonzero"/><path fill="#ffffff" d="M 181.980469 10.578125 L 185.117188 16.9375 L 192.128906 17.957031 L 187.054688 22.910156 L 188.25 29.898438 L 181.980469 26.597656 L 175.707031 29.898438 L 176.90625 22.910156 L 171.828125 17.957031 L 178.84375 16.9375 L 181.980469 10.578125 " fill-opacity="1" fill-rule="nonzero"/></svg>