<svg xmlns="http://www.w3.org/2000/svg" xmlns:xlink="http://www.w3.org/1999/xlink" width="500" zoomAndPan="magnify" viewBox="0 0 375 374.999991" height="500" preserveAspectRatio="xMidYMid meet" version="1.0"><defs><clipPath id="66c540412f"><path d="M 374.652344 187.167969 C 374.652344 290.714844 290.714844 374.652344 187.167969 374.652344 C 83.621094 374.652344 -0.316406 290.714844 -0.316406 187.167969 C -0.316406 83.621094 83.621094 -0.316406 187.167969 -0.316406 C 290.714844 -0.316406 374.652344 83.621094 374.652344 187.167969 Z M 374.652344 187.167969 " clip-rule="nonzero"/></clipPath><clipPath id="a4d6d68ad1"><path d="M 77 83 L 298 83 L 298 287 L 77 287 Z M 77 83 " clip-rule="nonzero"/></clipPath><clipPath id="c44cfdb93f"><path d="M 374.652344 187.167969 C 374.652344 290.714844 290.714844 374.652344 187.167969 374.652344 C 83.621094 374.652344 -0.316406 290.714844 -0.316406 187.167969 C -0.316406 83.621094 83.621094 -0.316406 187.167969 -0.316406 C 290.714844 -0.316406 374.652344 83.621094 374.652344 187.167969 Z M 374.652344 187.167969 " clip-rule="nonzero"/></clipPath></defs><g clip-path="url(#66c540412f)"><path fill="#ea1e25" d="M -94.042969 374.652344 L -94.042969 -0.289062 L 468.382812 -0.289062 L 468.382812 374.652344 L -94.042969 374.652344 " fill-opacity="1" fill-rule="nonzero"/></g><g clip-path="url(#a4d6d68ad1)"><g clip-path="url(#c44cfdb93f)"><path fill="#f8ed08" d="M 186.886719 83.675781 L 212.953125 160.609375 L 297.277344 160.609375 L 228.894531 210.652344 L 254.210938 286.917969 L 186.9375 241.605469 L 119.609375 286.917969 L 144.878906 210.652344 L 77.0625 160.609375 L 161.4375 160.609375 L 186.886719 83.675781 " fill-opacity="1" fill-rule="nonzero"/></g></g></svg>